<svg version="1.1" xmlns="http://www.w3.org/2000/svg" width="1024" height="1024" viewBox="0 0 1024 1024">
<path d="M54.227 501.227c-5.946 0-10.773 4.825-10.773 10.773s4.825 10.773 10.773 10.773v-21.543zM977.392 519.621c4.21-4.21 4.21-11.028 0-15.235l-68.552-68.551c-4.21-4.21-11.021-4.21-15.235 0-4.21 4.21-4.21 11.028 0 15.235l60.937 60.934-60.937 60.936c-4.21 4.21-4.21 11.029 0 15.235 4.21 4.21 11.029 4.21 15.235 0l68.552-68.551zM54.227 522.773l915.55 0.001v-21.543l-915.55-0.001v21.543z"></path>
</svg>
