<svg version="1.1" xmlns="http://www.w3.org/2000/svg" width="1024" height="1024" viewBox="0 0 1024 1024">
<path d="M610.343 905.372c-17.354 0-28.927-5.78-40.493-17.354-23.135-23.135-23.135-57.85 0-80.989l237.178-237.178h-728.891c-34.708 0-57.85-23.135-57.85-57.85s23.135-57.85 57.85-57.85h728.891l-237.178-237.178c-23.135-23.135-23.135-57.85 0-80.989s57.85-23.135 80.989 0l335.52 335.52c0 0 0 0 0 0s0 0 0 0 0 0 0 0 0 0 0 0 0 0 0 0v0c0 0 0 0 0 0v0c5.78 5.78 5.78 11.574 11.574 17.354v0c0 0 0 0 0 0v0c0 0 0 0 0 0v0c0 0 0 0 0 0s0 0 0 0 0 0 0 0 0 0 0 0 0 0 0 0 0 0 0 0v0c0 0 0 0 0 0s0 0 0 0 0 0 0 0 0 0 0 0 0 0 0 0 0 0 0 0 0 0 0 0 0 0 0 0 0 0 0 0 0 0 0 0 0 0 0 0 0 0 0 0v0c0 5.78 5.78 11.574 5.78 23.135v0 0c0 0 0 0 0 0v0c0 0 0 0 0 0v0 0c0 5.78 0 17.354-5.78 23.135 0 5.78-5.78 11.574-11.574 17.354v0c0 0 0 0 0 0s0 0 0 0v0l-335.52 335.52c-11.574 11.574-28.927 17.354-40.493 17.354z"></path>
</svg>
