<svg version="1.1" xmlns="http://www.w3.org/2000/svg" width="1024" height="1024" viewBox="0 0 1024 1024">
<path d="M543.1 45.5c0-17.174-13.925-31.1-31.1-31.1s-31.1 13.926-31.1 31.1h62.2zM490.004 1000.496c12.142 12.142 31.839 12.142 43.981 0l197.92-197.92c12.142-12.142 12.142-31.836 0-43.981-12.144-12.142-31.839-12.142-43.981 0l-175.925 175.925-175.924-175.925c-12.142-12.142-31.838-12.142-43.981 0-12.142 12.144-12.142 31.839 0 43.981l197.92 197.92zM480.9 45.5v933h62.2v-933h-62.2z"></path>
</svg>
